<?xml version="1.0" encoding="utf-8"?>
<!-- Generator: Adobe Illustrator 15.0.2, SVG Export Plug-In . SVG Version: 6.00 Build 0)  -->
<!DOCTYPE svg PUBLIC "-//W3C//DTD SVG 1.1//EN" "http://www.w3.org/Graphics/SVG/1.1/DTD/svg11.dtd">
<svg version="1.1" id="Calque_1" xmlns="http://www.w3.org/2000/svg" xmlns:xlink="http://www.w3.org/1999/xlink" x="0px" y="0px"
	 width="36px" height="864px" viewBox="0 0 36 864" enable-background="new 0 0 36 864" xml:space="preserve">
<g>
	<path fill="#4CAF50" d="M24.278,20.223c-0.885,2.543-3.317,4.425-6.303,4.425c-3.647,0-6.633-2.985-6.633-6.635
		c0-2.876,1.879-5.308,4.422-6.303c0-0.11,0-0.223,0-0.332c0-1.105,0.221-2.211,0.553-3.206c-4.645,0.773-8.292,4.865-8.292,9.841
		c0,5.527,4.422,9.95,9.95,9.95c4.975,0,9.065-3.648,9.841-8.292c-0.994,0.332-2.101,0.552-3.208,0.552
		C24.501,20.223,24.39,20.223,24.278,20.223z"/>
	<path fill="#FFC107" d="M24.609,4.746c-3.647,0-6.634,2.984-6.634,6.633c0,3.649,2.986,6.635,6.634,6.635s6.635-2.985,6.635-6.635
		C31.244,7.731,28.259,4.746,24.609,4.746z M24.609,14.697c-1.88,0-3.316-1.438-3.316-3.317s1.438-3.316,3.316-3.316
		c1.882,0,3.317,1.438,3.317,3.316C27.929,13.259,26.491,14.697,24.609,14.697z"/>
	<path fill="#4CAF50" d="M23.498,57.777c-1.511,2.228-4.348,3.415-7.231,2.644c-3.524-0.945-5.637-4.602-4.691-8.125
		c0.744-2.778,3.189-4.641,5.904-4.943c0.029-0.106,0.058-0.215,0.086-0.321c0.285-1.067,0.785-2.079,1.363-2.954
		c-4.687-0.454-9.27,2.554-10.557,7.359c-1.431,5.339,1.696,10.755,7.036,12.187c4.806,1.288,9.701-1.178,11.651-5.462
		c-1.047,0.063-2.172-0.011-3.241-0.298C23.714,57.834,23.607,57.806,23.498,57.777z"/>
	<path fill="#FFC107" d="M27.824,42.912c-3.524-0.944-7.179,1.166-8.124,4.69c-0.943,3.525,1.165,7.182,4.689,8.126
		c3.523,0.944,7.181-1.167,8.125-4.691C33.461,47.512,31.349,43.857,27.824,42.912z M25.249,52.524
		c-1.814-0.485-2.831-2.247-2.344-4.063c0.486-1.816,2.247-2.832,4.063-2.346c1.816,0.486,2.832,2.246,2.346,4.062
		C28.825,51.994,27.067,53.011,25.249,52.524z"/>
	<path fill="#4CAF50" d="M22.343,95.073c-2.035,1.763-5.084,2.175-7.668,0.683c-3.16-1.824-4.252-5.904-2.429-9.063
		c1.438-2.49,4.282-3.656,6.981-3.247c0.057-0.096,0.111-0.19,0.166-0.286c0.555-0.957,1.298-1.807,2.084-2.5
		c-4.41-1.652-9.616,0.065-12.104,4.376c-2.764,4.786-1.146,10.827,3.644,13.593c4.309,2.488,9.675,1.375,12.67-2.26
		c-1.029-0.21-2.096-0.573-3.055-1.127C22.536,95.184,22.442,95.129,22.343,95.073z"/>
	<path fill="#FFC107" d="M30.37,81.834c-3.158-1.824-7.234-0.732-9.061,2.427c-1.826,3.161-0.733,7.239,2.427,9.063
		c3.159,1.824,7.237,0.729,9.063-2.43C34.624,87.736,33.529,83.658,30.37,81.834z M25.396,90.451
		c-1.629-0.939-2.154-2.903-1.213-4.531c0.939-1.628,2.903-2.153,4.531-1.215c1.629,0.94,2.152,2.903,1.213,4.531
		C28.987,90.865,27.024,91.393,25.396,90.451z"/>
	<path fill="#4CAF50" d="M20.886,132.007c-2.42,1.176-5.473,0.783-7.582-1.327c-2.58-2.579-2.58-6.802,0-9.381
		c2.033-2.035,5.082-2.424,7.584-1.329c0.08-0.079,0.158-0.157,0.235-0.235c0.781-0.78,1.72-1.407,2.657-1.876
		c-3.83-2.736-9.305-2.424-12.823,1.096c-3.909,3.907-3.909,10.16,0,14.071c3.519,3.518,8.991,3.832,12.822,1.098
		c-0.938-0.471-1.875-1.098-2.659-1.88C21.044,132.166,20.966,132.088,20.886,132.007z"/>
	<path fill="#FFC107" d="M32.066,121.299c-2.578-2.58-6.802-2.58-9.382-0.002c-2.58,2.581-2.58,6.804-0.002,9.383
		c2.582,2.58,6.802,2.578,9.384,0C34.647,128.099,34.646,123.878,32.066,121.299z M25.029,128.333
		c-1.328-1.326-1.328-3.361,0.002-4.69c1.327-1.329,3.362-1.327,4.688,0c1.332,1.331,1.33,3.362,0,4.69
		C28.394,129.663,26.361,129.663,25.029,128.333z"/>
	<path fill="#4CAF50" d="M19.226,168.555c-2.643,0.507-5.488-0.661-6.979-3.247c-1.823-3.158-0.731-7.237,2.429-9.063
		c2.49-1.438,5.535-1.025,7.67,0.682c0.094-0.057,0.19-0.111,0.287-0.168c0.957-0.554,2.026-0.914,3.053-1.123
		c-2.992-3.636-8.358-4.751-12.668-2.264c-4.787,2.765-6.406,8.807-3.643,13.595c2.488,4.309,7.691,6.026,12.102,4.378
		c-0.784-0.696-1.529-1.546-2.082-2.504C19.339,168.745,19.284,168.652,19.226,168.555z"/>
	<path fill="#FFC107" d="M32.798,161.103c-1.824-3.16-5.9-4.253-9.062-2.429c-3.16,1.824-4.254,5.902-2.429,9.062
		c1.822,3.159,5.901,4.252,9.063,2.429C33.529,168.34,34.62,164.262,32.798,161.103z M24.179,166.075
		c-0.938-1.627-0.412-3.591,1.217-4.53c1.627-0.939,3.592-0.412,4.531,1.215c0.938,1.63,0.412,3.591-1.217,4.531
		C27.084,168.233,25.12,167.705,24.179,166.075z"/>
	<path fill="#4CAF50" d="M17.479,204.648c-2.684-0.194-5.133-2.058-5.904-4.941c-0.943-3.523,1.167-7.18,4.691-8.125
		c2.779-0.743,5.613,0.442,7.232,2.643c0.105-0.028,0.212-0.058,0.319-0.086c1.067-0.287,2.194-0.359,3.241-0.295
		c-1.951-4.287-6.846-6.753-11.652-5.465c-5.34,1.431-8.466,6.848-7.036,12.187c1.288,4.805,5.869,7.814,10.556,7.361
		c-0.578-0.874-1.078-1.89-1.363-2.956C17.537,204.864,17.509,204.756,17.479,204.648z"/>
	<path fill="#FFC107" d="M32.515,200.964c-0.943-3.525-4.602-5.637-8.123-4.691c-3.527,0.943-5.639,4.601-4.691,8.123
		c0.943,3.525,4.602,5.636,8.125,4.691C31.349,208.144,33.46,204.487,32.515,200.964z M22.904,203.536
		c-0.486-1.813,0.53-3.574,2.348-4.063c1.813-0.485,3.573,0.532,4.062,2.344c0.486,1.821-0.53,3.577-2.346,4.064
		C25.15,206.369,23.39,205.355,22.904,203.536z"/>
	<path fill="#4CAF50" d="M15.765,240.285c-2.543-0.882-4.424-3.315-4.424-6.301c0-3.647,2.985-6.634,6.633-6.634
		c2.879,0,5.309,1.88,6.305,4.424c0.109,0,0.22,0,0.332,0c1.105,0,2.212,0.221,3.205,0.553c-0.773-4.645-4.864-8.293-9.84-8.293
		c-5.527,0-9.949,4.423-9.949,9.95c0,4.977,3.646,9.067,8.291,9.843c-0.333-0.993-0.553-2.104-0.551-3.21
		C15.767,240.511,15.765,240.4,15.765,240.285z"/>
	<path fill="#FFC107" d="M31.244,240.619c0-3.647-2.985-6.633-6.632-6.635c-3.652,0.002-6.639,2.986-6.637,6.633
		c0,3.65,2.986,6.636,6.635,6.636S31.244,244.269,31.244,240.619z M21.292,240.617c0.002-1.878,1.438-3.313,3.32-3.315
		c1.878,0,3.314,1.438,3.316,3.315c-0.002,1.885-1.438,3.316-3.318,3.318C22.729,243.937,21.294,242.5,21.292,240.617z"/>
	<path fill="#4CAF50" d="M14.212,275.506c-2.228-1.51-3.416-4.348-2.643-7.23c0.945-3.523,4.602-5.635,8.125-4.688
		c2.777,0.741,4.642,3.188,4.945,5.903c0.103,0.026,0.211,0.057,0.319,0.086c1.067,0.285,2.079,0.785,2.953,1.362
		c0.456-4.686-2.551-9.269-7.358-10.558c-5.338-1.431-10.756,1.695-12.187,7.035c-1.287,4.807,1.177,9.701,5.462,11.653
		c-0.063-1.047,0.012-2.175,0.298-3.242C14.155,275.723,14.183,275.615,14.212,275.506z"/>
	<path fill="#FFC107" d="M29.077,279.835c0.943-3.524-1.167-7.181-4.689-8.125c-3.526-0.944-7.184,1.165-8.125,4.688
		c-0.945,3.524,1.166,7.182,4.691,8.127C24.476,285.471,28.134,283.359,29.077,279.835z M19.466,277.258
		c0.486-1.813,2.248-2.829,4.064-2.347c1.814,0.487,2.828,2.249,2.346,4.063c-0.488,1.816-2.249,2.832-4.064,2.345
		C19.995,280.835,18.979,279.076,19.466,277.258z"/>
	<path fill="#4CAF50" d="M12.914,310.323c-1.76-2.035-2.173-5.085-0.681-7.67c1.824-3.16,5.902-4.252,9.061-2.427
		c2.492,1.437,3.657,4.281,3.249,6.981c0.093,0.054,0.191,0.108,0.287,0.167c0.956,0.554,1.806,1.298,2.5,2.08
		c1.652-4.406-0.065-9.613-4.375-12.103c-4.787-2.764-10.829-1.146-13.592,3.643c-2.487,4.309-1.375,9.677,2.259,12.668
		c0.209-1.025,0.573-2.096,1.127-3.054C12.804,310.518,12.858,310.42,12.914,310.323z"/>
	<path fill="#FFC107" d="M26.152,318.35c1.825-3.158,0.729-7.236-2.427-9.063c-3.162-1.823-7.239-0.732-9.063,2.428
		c-1.824,3.158-0.73,7.238,2.43,9.064C20.25,322.602,24.328,321.51,26.152,318.35z M17.535,313.373
		c0.94-1.627,2.903-2.151,4.533-1.213c1.626,0.938,2.151,2.903,1.215,4.529c-0.942,1.632-2.903,2.154-4.532,1.214
		C17.121,316.967,16.595,315.004,17.535,313.373z"/>
	<path fill="#4CAF50" d="M11.966,344.896c-1.174-2.422-0.783-5.475,1.327-7.585c2.581-2.578,6.804-2.578,9.382,0.002
		c2.034,2.032,2.424,5.081,1.33,7.583c0.076,0.078,0.156,0.157,0.234,0.236c0.781,0.78,1.408,1.72,1.876,2.656
		c2.737-3.83,2.426-9.304-1.093-12.821c-3.909-3.91-10.164-3.908-14.072,0c-3.52,3.519-3.833,8.988-1.098,12.821
		c0.469-0.938,1.097-1.878,1.879-2.658C11.808,345.055,11.886,344.976,11.966,344.896z"/>
	<path fill="#FFC107" d="M22.675,356.075c2.582-2.579,2.58-6.803,0.002-9.382c-2.582-2.582-6.803-2.582-9.383-0.002
		c-2.58,2.579-2.58,6.803,0.002,9.384C15.873,358.655,20.095,358.655,22.675,356.075z M15.64,349.035
		c1.328-1.324,3.36-1.324,4.69,0.004c1.329,1.328,1.327,3.36,0.002,4.689c-1.333,1.332-3.362,1.33-4.694,0
		C14.31,352.401,14.31,350.367,15.64,349.035z"/>
	<path fill="#4CAF50" d="M11.435,379.237c-0.508-2.642,0.66-5.49,3.244-6.982c3.16-1.824,7.239-0.729,9.062,2.431
		c1.438,2.489,1.026,5.536-0.679,7.67c0.054,0.095,0.109,0.189,0.166,0.288c0.553,0.957,0.916,2.024,1.123,3.051
		c3.638-2.991,4.754-8.357,2.267-12.668c-2.765-4.789-8.806-6.404-13.595-3.641c-4.309,2.486-6.028,7.689-4.379,12.1
		c0.697-0.783,1.545-1.529,2.504-2.081C11.24,379.349,11.336,379.291,11.435,379.237z"/>
	<path fill="#FFC107" d="M18.884,392.807c3.16-1.823,4.252-5.901,2.43-9.061c-1.825-3.162-5.902-4.257-9.063-2.431
		c-3.16,1.824-4.252,5.903-2.427,9.063C11.647,393.537,15.726,394.63,18.884,392.807z M13.911,384.189
		c1.626-0.938,3.589-0.412,4.529,1.216c0.939,1.626,0.412,3.591-1.211,4.53c-1.633,0.942-3.592,0.414-4.533-1.214
		S12.282,385.13,13.911,384.189z"/>
	<path fill="#4CAF50" d="M11.37,413.49c0.193-2.684,2.059-5.132,4.941-5.905c3.523-0.943,7.181,1.169,8.125,4.691
		c0.746,2.778-0.441,5.615-2.641,7.232c0.026,0.104,0.055,0.212,0.084,0.321c0.286,1.067,0.357,2.192,0.295,3.237
		c4.286-1.947,6.754-6.843,5.465-11.65c-1.431-5.34-6.848-8.465-12.188-7.034c-4.807,1.286-7.813,5.868-7.359,10.557
		c0.875-0.579,1.887-1.078,2.957-1.365C11.154,413.547,11.263,413.519,11.37,413.49z"/>
	<path fill="#FFC107" d="M15.056,428.525c3.523-0.942,5.633-4.599,4.691-8.122c-0.945-3.525-4.602-5.639-8.125-4.692
		c-3.523,0.943-5.635,4.601-4.691,8.128C7.874,427.358,11.532,429.468,15.056,428.525z M12.482,418.911
		c1.813-0.483,3.573,0.531,4.061,2.349c0.487,1.813-0.53,3.575-2.343,4.063c-1.82,0.487-3.577-0.527-4.064-2.348
		C9.647,421.16,10.663,419.402,12.482,418.911z"/>
	<path fill="#4CAF50" d="M11.731,447.776c0.881-2.543,3.316-4.426,6.301-4.426c3.648,0,6.634,2.989,6.632,6.636
		c0.003,2.876-1.878,5.31-4.421,6.303c-0.001,0.108-0.001,0.22-0.001,0.332c0,1.104-0.222,2.212-0.552,3.206
		c4.645-0.772,8.294-4.865,8.294-9.841c0-5.528-4.425-9.95-9.952-9.95c-4.977,0-9.066,3.646-9.842,8.291
		c0.994-0.332,2.103-0.553,3.209-0.551C11.507,447.774,11.617,447.774,11.731,447.776z"/>
	<path fill="#FFC107" d="M11.397,463.25c3.648,0.004,6.632-2.982,6.635-6.631c-0.001-3.649-2.984-6.637-6.635-6.637
		c-3.648,0-6.635,2.986-6.635,6.637C4.763,460.268,7.75,463.25,11.397,463.25z M11.4,453.302c1.877,0.002,3.313,1.438,3.313,3.317
		c0.002,1.878-1.438,3.314-3.313,3.319c-1.884-0.003-3.318-1.439-3.319-3.321C8.08,454.74,9.517,453.302,11.4,453.302z"/>
	<path fill="#4CAF50" d="M12.511,482.223c1.51-2.229,4.35-3.415,7.231-2.643c3.524,0.941,5.633,4.604,4.688,8.123
		c-0.742,2.778-3.189,4.643-5.901,4.945c-0.029,0.104-0.058,0.212-0.088,0.32c-0.285,1.065-0.786,2.079-1.362,2.953
		c4.688,0.453,9.27-2.554,10.557-7.359c1.433-5.339-1.697-10.756-7.037-12.188c-4.806-1.287-9.701,1.177-11.651,5.464
		c1.046-0.064,2.173,0.008,3.243,0.297C12.294,482.162,12.402,482.192,12.511,482.223z"/>
	<path fill="#FFC107" d="M8.183,497.087c3.522,0.944,7.179-1.166,8.125-4.689c0.945-3.527-1.166-7.184-4.689-8.127
		c-3.523-0.944-7.182,1.168-8.126,4.692C2.548,492.485,4.659,496.143,8.183,497.087z M10.761,487.475
		c1.813,0.487,2.83,2.247,2.344,4.064c-0.485,1.814-2.247,2.828-4.061,2.347c-1.82-0.488-2.832-2.246-2.348-4.064
		C7.183,488.005,8.942,486.99,10.761,487.475z"/>
	<path fill="#4CAF50" d="M13.666,516.927c2.035-1.764,5.085-2.175,7.669-0.682c3.16,1.822,4.251,5.904,2.426,9.061
		c-1.436,2.492-4.281,3.659-6.979,3.249c-0.057,0.093-0.111,0.188-0.168,0.288c-0.553,0.955-1.298,1.804-2.081,2.498
		c4.409,1.652,9.616-0.063,12.103-4.374c2.767-4.788,1.144-10.829-3.644-13.595c-4.308-2.484-9.674-1.375-12.669,2.263
		c1.027,0.208,2.098,0.57,3.055,1.125C13.472,516.814,13.568,516.868,13.666,516.927z"/>
	<path fill="#FFC107" d="M5.638,530.163c3.158,1.824,7.236,0.73,9.063-2.426c1.825-3.162,0.732-7.241-2.428-9.064
		c-3.159-1.824-7.238-0.73-9.064,2.431C1.388,524.262,2.479,528.34,5.638,530.163z M10.616,521.547
		c1.625,0.938,2.152,2.901,1.211,4.531c-0.938,1.626-2.902,2.152-4.529,1.217c-1.631-0.944-2.154-2.904-1.215-4.535
		C7.022,521.132,8.985,520.607,10.616,521.547z"/>
	<path fill="#4CAF50" d="M15.115,551.983c2.422-1.175,5.476-0.783,7.583,1.327c2.581,2.579,2.578,6.803-0.001,9.381
		c-2.031,2.034-5.083,2.424-7.583,1.332c-0.079,0.073-0.157,0.152-0.237,0.232c-0.78,0.78-1.72,1.404-2.655,1.875
		c3.83,2.737,9.305,2.427,12.821-1.093c3.911-3.909,3.907-10.164-0.001-14.073c-3.517-3.518-8.988-3.832-12.822-1.096
		c0.938,0.469,1.877,1.096,2.66,1.878C14.956,551.823,15.035,551.902,15.115,551.983z"/>
	<path fill="#FFC107" d="M3.935,562.691c2.578,2.581,6.802,2.579,9.383,0.002c2.58-2.58,2.582-6.802,0.002-9.385
		c-2.58-2.579-6.805-2.579-9.385,0.004C1.356,555.889,1.356,560.113,3.935,562.691z M10.974,555.656
		c1.326,1.33,1.326,3.36-0.004,4.691c-1.326,1.33-3.36,1.328-4.688,0.004c-1.332-1.335-1.33-3.363,0-4.695
		C7.61,554.325,9.642,554.325,10.974,555.656z"/>
	<path fill="#4CAF50" d="M16.782,587.446c2.645-0.507,5.49,0.662,6.98,3.244c1.826,3.158,0.729,7.24-2.428,9.063
		c-2.488,1.439-5.537,1.026-7.668-0.677c-0.095,0.053-0.191,0.107-0.29,0.165c-0.954,0.551-2.024,0.911-3.05,1.123
		c2.991,3.634,8.359,4.752,12.667,2.264c4.789-2.764,6.406-8.809,3.642-13.595c-2.487-4.308-7.69-6.028-12.103-4.378
		c0.785,0.694,1.531,1.545,2.083,2.505C16.669,587.252,16.726,587.349,16.782,587.446z"/>
	<path fill="#FFC107" d="M3.211,594.896c1.823,3.159,5.902,4.252,9.062,2.43c3.162-1.825,4.257-5.9,2.432-9.063
		c-1.824-3.161-5.904-4.253-9.066-2.427C2.481,587.656,1.388,591.738,3.211,594.896z M11.83,589.922
		c0.938,1.628,0.412,3.589-1.217,4.529c-1.625,0.939-3.59,0.412-4.531-1.21c-0.94-1.635-0.414-3.593,1.216-4.534
		C8.927,587.768,10.888,588.293,11.83,589.922z"/>
	<path fill="#4CAF50" d="M18.53,623.35c2.686,0.193,5.133,2.06,5.904,4.94c0.945,3.522-1.168,7.183-4.689,8.123
		c-2.777,0.748-5.615-0.44-7.232-2.638c-0.105,0.026-0.213,0.054-0.324,0.084c-1.064,0.287-2.191,0.356-3.236,0.297
		c1.948,4.285,6.844,6.753,11.65,5.465c5.341-1.431,8.465-6.85,7.035-12.188c-1.287-4.805-5.867-7.814-10.556-7.361
		c0.578,0.875,1.079,1.887,1.364,2.958C18.472,623.135,18.502,623.24,18.53,623.35z"/>
	<path fill="#FFC107" d="M3.494,627.032c0.942,3.525,4.601,5.636,8.123,4.693c3.526-0.945,5.64-4.601,4.694-8.127
		c-0.944-3.522-4.604-5.634-8.129-4.689C4.661,619.854,2.55,623.512,3.494,627.032z M13.106,624.461
		c0.484,1.813-0.53,3.571-2.35,4.062c-1.813,0.485-3.572-0.532-4.063-2.342c-0.485-1.822,0.529-3.579,2.348-4.065
		C10.859,621.627,12.617,622.644,13.106,624.461z"/>
	<path fill="#4CAF50" d="M20.242,659.71c2.544,0.883,4.426,3.318,4.425,6.302c0.001,3.646-2.986,6.633-6.634,6.633
		c-2.876,0.003-5.31-1.879-6.304-4.422c-0.108-0.002-0.219-0.004-0.334-0.002c-1.103,0-2.209-0.224-3.202-0.552
		c0.772,4.644,4.864,8.295,9.839,8.295c5.529,0,9.95-4.428,9.951-9.952c-0.001-4.976-3.646-9.066-8.292-9.842
		c0.332,0.991,0.555,2.102,0.553,3.208C20.243,659.487,20.243,659.597,20.242,659.71z"/>
	<path fill="#FFC107" d="M4.765,659.375c-0.002,3.648,2.986,6.635,6.633,6.637c3.65,0,6.637-2.982,6.637-6.637
		c0.001-3.646-2.986-6.633-6.639-6.633C7.751,652.744,4.767,655.731,4.765,659.375z M14.716,659.378
		c0,1.878-1.437,3.313-3.318,3.313c-1.877,0.002-3.314-1.437-3.318-3.313c0.003-1.887,1.438-3.318,3.319-3.318
		C13.28,656.06,14.714,657.495,14.716,659.378z"/>
	<path fill="#4CAF50" d="M21.796,696.49c2.229,1.509,3.418,4.35,2.645,7.23c-0.943,3.521-4.602,5.634-8.125,4.69
		c-2.779-0.742-4.643-3.189-4.944-5.901c-0.104-0.029-0.211-0.062-0.321-0.087c-1.065-0.287-2.076-0.787-2.953-1.363
		c-0.455,4.686,2.551,9.27,7.357,10.558c5.34,1.433,10.756-1.698,12.188-7.038c1.287-4.804-1.176-9.698-5.461-11.652
		c0.063,1.047-0.01,2.175-0.299,3.245C21.854,696.274,21.826,696.38,21.796,696.49z"/>
	<path fill="#FFC107" d="M6.933,692.16c-0.946,3.522,1.166,7.181,4.688,8.125c3.526,0.945,7.183-1.162,8.128-4.69
		c0.945-3.521-1.169-7.179-4.695-8.123C11.534,686.528,7.877,688.639,6.933,692.16z M16.544,694.74
		c-0.486,1.813-2.246,2.829-4.064,2.342c-1.813-0.482-2.829-2.247-2.348-4.06c0.49-1.819,2.248-2.834,4.065-2.345
		C16.015,691.16,17.029,692.922,16.544,694.74z"/>
	<path fill="#4CAF50" d="M23.073,733.649c1.762,2.034,2.175,5.085,0.684,7.667c-1.824,3.16-5.904,4.253-9.063,2.429
		c-2.492-1.437-3.659-4.282-3.248-6.979c-0.094-0.057-0.188-0.113-0.288-0.169c-0.956-0.55-1.802-1.299-2.499-2.079
		c-1.652,4.406,0.064,9.614,4.375,12.101c4.788,2.765,10.83,1.143,13.594-3.645c2.485-4.306,1.375-9.671-2.261-12.668
		c-0.21,1.025-0.571,2.099-1.126,3.057C23.187,733.453,23.13,733.552,23.073,733.649z"/>
	<path fill="#FFC107" d="M9.836,725.618c-1.825,3.158-0.729,7.237,2.427,9.063c3.162,1.824,7.239,0.734,9.064-2.429
		c1.826-3.157,0.73-7.236-2.432-9.063C15.739,721.368,11.661,722.462,9.836,725.618z M18.453,730.597
		c-0.94,1.627-2.901,2.151-4.532,1.213c-1.627-0.938-2.152-2.904-1.218-4.529c0.946-1.632,2.905-2.155,4.535-1.214
		C18.868,727.004,19.392,728.967,18.453,730.597z"/>
	<path fill="#4CAF50" d="M24.042,771.106c1.176,2.421,0.785,5.475-1.324,7.583c-2.58,2.579-6.804,2.579-9.382,0
		c-2.034-2.033-2.425-5.083-1.331-7.583c-0.076-0.079-0.152-0.157-0.234-0.237c-0.781-0.778-1.405-1.722-1.875-2.656
		c-2.736,3.832-2.426,9.307,1.093,12.821c3.909,3.91,10.165,3.906,14.073-0.002c3.516-3.516,3.832-8.985,1.096-12.819
		c-0.469,0.936-1.096,1.878-1.878,2.658C24.203,770.947,24.123,771.025,24.042,771.106z"/>
	<path fill="#FFC107" d="M13.335,759.925c-2.58,2.578-2.578,6.803-0.001,9.381c2.582,2.581,6.804,2.585,9.384,0.002
		c2.582-2.578,2.577-6.803-0.004-9.383C20.138,757.346,15.915,757.346,13.335,759.925z M20.37,766.964
		c-1.33,1.325-3.359,1.327-4.689-0.005c-1.33-1.325-1.328-3.361-0.004-4.688c1.334-1.332,3.362-1.33,4.692,0
		C21.701,763.6,21.699,765.63,20.37,766.964z"/>
	<path fill="#4CAF50" d="M24.574,808.765c0.509,2.643-0.66,5.49-3.244,6.98c-3.157,1.824-7.237,0.73-9.062-2.429
		c-1.439-2.489-1.027-5.538,0.677-7.669c-0.054-0.096-0.106-0.192-0.165-0.289c-0.553-0.957-0.911-2.026-1.124-3.053
		c-3.636,2.993-4.751,8.358-2.263,12.668c2.764,4.789,8.808,6.404,13.595,3.643c4.306-2.487,6.026-7.689,4.377-12.102
		c-0.696,0.783-1.544,1.532-2.503,2.082C24.771,808.654,24.673,808.706,24.574,808.765z"/>
	<path fill="#FFC107" d="M17.125,795.193c-3.159,1.823-4.251,5.902-2.43,9.063c1.825,3.159,5.901,4.258,9.063,2.431
		c3.16-1.822,4.25-5.903,2.426-9.065C24.361,794.463,20.284,793.37,17.125,795.193z M22.099,803.814
		c-1.629,0.937-3.59,0.413-4.53-1.219c-0.94-1.624-0.412-3.591,1.21-4.53c1.634-0.939,3.594-0.414,4.533,1.216
		C24.255,800.907,23.726,802.868,22.099,803.814z"/>
	<path fill="#4CAF50" d="M24.668,846.512c-0.192,2.685-2.058,5.133-4.938,5.902c-3.523,0.944-7.182-1.166-8.125-4.688
		c-0.746-2.779,0.441-5.615,2.64-7.233c-0.026-0.104-0.054-0.215-0.085-0.323c-0.286-1.065-0.355-2.192-0.296-3.238
		c-4.285,1.95-6.753,6.846-5.466,11.65c1.432,5.341,6.851,8.466,12.188,7.037c4.804-1.288,7.815-5.868,7.361-10.559
		c-0.874,0.577-1.888,1.08-2.957,1.364C24.888,846.453,24.78,846.484,24.668,846.512z"/>
	<path fill="#FFC107" d="M20.987,831.475c-3.523,0.941-5.633,4.602-4.691,8.123c0.944,3.524,4.598,5.641,8.125,4.693
		c3.522-0.941,5.635-4.604,4.688-8.127C28.164,832.642,24.511,830.531,20.987,831.475z M23.56,841.088
		c-1.813,0.482-3.572-0.531-4.061-2.348c-0.486-1.813,0.531-3.576,2.342-4.064c1.821-0.484,3.577,0.529,4.064,2.348
		C26.394,838.84,25.375,840.598,23.56,841.088z"/>
	<rect y="0" fill="#607D8B" fill-opacity="0" width="36" height="864"/>
</g>
</svg>
